<svg xmlns="http://www.w3.org/2000/svg" viewBox="0 0 100 100">
  <!-- Teal circle background -->
  <circle cx="50" cy="50" r="50" fill="#3DBFB3"/>
  <!-- Heart shape -->
  <path d="M50 72 C50 72 22 54 22 36 C22 27 29 21 37 21 C42 21 47 24 50 28 C53 24 58 21 63 21 C71 21 78 27 78 36 C78 54 50 72 50 72Z"
        fill="#E05050"/>
  <!-- Shadow/depth on right half of heart -->
  <path d="M50 28 C53 24 58 21 63 21 C71 21 78 27 78 36 C78 54 50 72 50 72Z"
        fill="#C43C3C" opacity="0.6"/>
  <!-- EKG / pulse line -->
  <polyline points="18,50 30,50 35,42 40,58 45,46 52,54 57,50 82,50"
            fill="none" stroke="white" stroke-width="4.5"
            stroke-linecap="round" stroke-linejoin="round"/>
</svg>
